<svg width="126" height="43" viewBox="0 0 126 43" fill="none" xmlns="http://www.w3.org/2000/svg">
<path d="M47.68 25.744C52.192 25.744 55.136 22.608 55.136 18.288C55.136 13.84 52.224 10.864 47.68 10.864H38.688V34H41.824V25.744H47.68ZM47.136 13.68C50.08 13.68 51.84 15.344 51.84 18.256C51.84 21.104 50.112 22.928 47.008 22.928H41.824V13.68H47.136ZM64.2093 34.384C68.0813 34.384 70.7053 32.496 71.4733 29.136H68.6573C68.1453 30.928 66.6093 31.888 64.2733 31.888C61.2973 31.888 59.5693 30.064 59.3453 26.768L71.4412 26.736V25.616C71.4412 20.976 68.5293 17.904 64.0813 17.904C59.5373 17.904 56.4333 21.296 56.4333 26.192C56.4333 31.056 59.6013 34.384 64.2093 34.384ZM64.0813 20.432C66.7373 20.432 68.4333 22.16 68.4333 24.752H59.4093C59.7933 22 61.4573 20.432 64.0813 20.432ZM79.2208 34.384C81.7488 34.384 83.8928 33.264 84.6928 31.472L85.0128 34H87.5728V24.176C87.5728 19.952 84.9488 17.904 81.0768 17.904C77.0448 17.904 74.3568 20.048 74.3568 23.312H76.9808C76.9808 21.424 78.4208 20.304 80.9488 20.304C83.0608 20.304 84.6288 21.232 84.6288 23.856V24.304L79.7008 24.688C76.0208 24.976 73.8768 26.768 73.8768 29.648C73.8768 32.496 75.8608 34.384 79.2208 34.384ZM80.0848 32.048C78.1328 32.048 76.9168 31.216 76.9168 29.552C76.9168 28.016 78.0048 26.992 80.6608 26.736L84.6608 26.416V27.248C84.6608 30.192 82.9328 32.048 80.0848 32.048ZM90.7145 26.192C90.7145 31.12 93.7545 34.384 98.3625 34.384C102.139 34.384 105.051 32.112 105.659 28.72H102.651C102.107 30.576 100.507 31.696 98.3625 31.696C95.5145 31.696 93.6905 29.52 93.6905 26.16C93.6905 22.768 95.6425 20.592 98.4905 20.592C100.507 20.592 102.107 21.648 102.619 23.632H105.627C105.083 20.144 102.331 17.904 98.3945 17.904C93.8185 17.904 90.7145 21.296 90.7145 26.192ZM111.84 33.968V25.456C111.84 22.768 113.408 20.656 116.32 20.656C118.56 20.656 120.064 21.936 120.064 25.104V34H123.072V24.432C123.072 20.432 121.152 17.904 117.152 17.904C114.72 17.904 112.832 19.056 111.84 20.752V10.448H108.832V33.968H111.84Z" fill="#111111"/>
<rect y="5" width="32" height="32" rx="5" fill="#7557D3"/>
<path d="M19.68 25.744C24.192 25.744 27.136 22.608 27.136 18.288C27.136 13.84 24.224 10.864 19.68 10.864H10.688V34H13.824V25.744H19.68ZM19.136 13.68C22.08 13.68 23.84 15.344 23.84 18.256C23.84 21.104 22.112 22.928 19.008 22.928H13.824V13.68H19.136Z" fill="white"/>
<g filter="url(#filter0_d_41_90)">
<path d="M17.68 25.744C22.192 25.744 25.136 22.608 25.136 18.288C25.136 13.84 22.224 10.864 17.68 10.864H8.688V34H11.824V25.744H17.68ZM17.136 13.68C20.08 13.68 21.84 15.344 21.84 18.256C21.84 21.104 20.112 22.928 17.008 22.928H11.824V13.68H17.136Z" fill="white"/>
</g>
<defs>
<filter id="filter0_d_41_90" x="7.68799" y="10.864" width="18.448" height="25.136" filterUnits="userSpaceOnUse" color-interpolation-filters="sRGB">
<feFlood flood-opacity="0" result="BackgroundImageFix"/>
<feColorMatrix in="SourceAlpha" type="matrix" values="0 0 0 0 0 0 0 0 0 0 0 0 0 0 0 0 0 0 127 0" result="hardAlpha"/>
<feOffset dy="1"/>
<feGaussianBlur stdDeviation="0.5"/>
<feComposite in2="hardAlpha" operator="out"/>
<feColorMatrix type="matrix" values="0 0 0 0 0 0 0 0 0 0 0 0 0 0 0 0 0 0 0.25 0"/>
<feBlend mode="normal" in2="BackgroundImageFix" result="effect1_dropShadow_41_90"/>
<feBlend mode="normal" in="SourceGraphic" in2="effect1_dropShadow_41_90" result="shape"/>
</filter>
</defs>
</svg>
