<svg width="20" height="20" viewBox="0 0 20 20" fill="none" xmlns="http://www.w3.org/2000/svg">
<path d="M12.7084 9.83342C13.1164 9.58495 13.4608 9.2446 13.714 8.83949C13.9672 8.43438 14.1222 7.97572 14.1667 7.50008C14.1745 7.06998 14.0974 6.64258 13.9399 6.24227C13.7824 5.84197 13.5476 5.47661 13.2489 5.16707C12.9502 4.85753 12.5935 4.60987 12.199 4.43823C11.8046 4.26659 11.3802 4.17434 10.9501 4.16675H5.54175V15.8334H11.3751C11.7844 15.8291 12.1888 15.7441 12.5653 15.5835C12.9417 15.4228 13.2829 15.1896 13.5692 14.897C13.8555 14.6045 14.0814 14.2585 14.234 13.8787C14.3866 13.4989 14.4628 13.0927 14.4584 12.6834V12.5834C14.4587 12.006 14.2942 11.4405 13.9842 10.9534C13.6742 10.4662 13.2316 10.0777 12.7084 9.83342ZM7.20841 5.83341H10.7084C11.0636 5.82242 11.4136 5.92032 11.7115 6.11396C12.0094 6.3076 12.2409 6.58773 12.3751 6.91675C12.5108 7.35657 12.4669 7.83224 12.253 8.23979C12.0391 8.64735 11.6725 8.95365 11.2334 9.09175C11.0629 9.14172 10.8861 9.16698 10.7084 9.16675H7.20841V5.83341ZM11.0417 14.1667H7.20841V10.8334H11.0417C11.3969 10.8224 11.7469 10.9203 12.0448 11.114C12.3427 11.3076 12.5743 11.5877 12.7084 11.9167C12.8441 12.3566 12.8002 12.8322 12.5863 13.2398C12.3724 13.6473 12.0058 13.9536 11.5667 14.0917C11.3962 14.1417 11.2194 14.167 11.0417 14.1667Z" fill="white"/>
</svg>
