<svg width="14" height="15" viewBox="0 0 14 15" fill="none" xmlns="http://www.w3.org/2000/svg">
<path d="M3.86059 13.3828L0.333259 14.1668L1.11726 10.6395C0.600947 9.67375 0.331611 8.59526 0.333259 7.50016C0.333259 3.81816 3.31793 0.833496 6.99993 0.833496C10.6819 0.833496 13.6666 3.81816 13.6666 7.50016C13.6666 11.1822 10.6819 14.1668 6.99993 14.1668C5.90483 14.1685 4.82634 13.8991 3.86059 13.3828ZM4.05393 11.9742L4.48926 12.2075C5.26163 12.6203 6.12419 12.8353 6.99993 12.8335C8.05476 12.8335 9.0859 12.5207 9.96297 11.9347C10.84 11.3486 11.5236 10.5157 11.9273 9.54114C12.331 8.5666 12.4366 7.49425 12.2308 6.45968C12.025 5.42512 11.517 4.47481 10.7712 3.72893C10.0253 2.98305 9.07497 2.4751 8.04041 2.26931C7.00584 2.06352 5.93349 2.16914 4.95895 2.57281C3.98441 2.97647 3.15146 3.66006 2.56542 4.53712C1.97939 5.41418 1.66659 6.44533 1.66659 7.50016C1.66659 8.3895 1.88326 9.2455 2.29326 10.0108L2.52593 10.4462L2.08926 12.4108L4.05393 11.9742Z" fill="#57497C"/>
</svg>
