<svg width="70" height="24" viewBox="0 0 70 24" fill="none" xmlns="http://www.w3.org/2000/svg">
<path d="M26.9377 14.479C29.4086 14.479 31.0207 12.7616 31.0207 10.3959C31.0207 7.96012 29.4261 6.33041 26.9377 6.33041H22.0135V19.0001H23.7308V14.479H26.9377ZM26.6398 7.8725C28.252 7.8725 29.2158 8.78374 29.2158 10.3784C29.2158 11.938 28.2695 12.9369 26.5697 12.9369H23.7308V7.8725H26.6398ZM35.9894 19.2104C38.1098 19.2104 39.5468 18.1765 39.9673 16.3365H38.4252C38.1449 17.3178 37.3037 17.8436 36.0245 17.8436C34.3948 17.8436 33.4485 16.8447 33.3258 15.0397L39.9498 15.0222V14.4089C39.9498 11.8679 38.3551 10.1856 35.9193 10.1856C33.431 10.1856 31.7311 12.0432 31.7311 14.7243C31.7311 17.3879 33.466 19.2104 35.9894 19.2104ZM35.9193 11.57C37.3738 11.57 38.3026 12.5163 38.3026 13.9357H33.3609C33.5711 12.4287 34.4824 11.57 35.9193 11.57ZM44.21 19.2104C45.5944 19.2104 46.7685 18.5971 47.2066 17.6157L47.3818 19.0001H48.7837V13.6203C48.7837 11.3072 47.3468 10.1856 45.2264 10.1856C43.0184 10.1856 41.5464 11.3597 41.5464 13.1472H42.9833C42.9833 12.1133 43.7719 11.4999 45.1563 11.4999C46.3129 11.4999 47.1715 12.0081 47.1715 13.4451V13.6904L44.4729 13.9007C42.4576 14.0584 41.2835 15.0397 41.2835 16.6169C41.2835 18.1765 42.37 19.2104 44.21 19.2104ZM44.6832 17.9312C43.6142 17.9312 42.9483 17.4756 42.9483 16.5643C42.9483 15.7232 43.5441 15.1624 44.9986 15.0222L47.1891 14.847V15.3026C47.1891 16.9148 46.2428 17.9312 44.6832 17.9312ZM50.5042 14.7243C50.5042 17.423 52.169 19.2104 54.6924 19.2104C56.7602 19.2104 58.3549 17.9662 58.6878 16.1087H57.0406C56.7427 17.1251 55.8665 17.7384 54.6924 17.7384C53.1328 17.7384 52.1339 16.5468 52.1339 14.7068C52.1339 12.8493 53.2029 11.6576 54.7625 11.6576C55.8665 11.6576 56.7427 12.2359 57.0231 13.3224H58.6703C58.3724 11.4123 56.8653 10.1856 54.7099 10.1856C52.204 10.1856 50.5042 12.0432 50.5042 14.7243ZM62.0731 18.9826V14.3213C62.0731 12.8493 62.9317 11.6927 64.5264 11.6927C65.7531 11.6927 66.5767 12.3936 66.5767 14.1285V19.0001H68.2239V13.7605C68.2239 11.57 67.1725 10.1856 64.982 10.1856C63.6502 10.1856 62.6163 10.8165 62.0731 11.7453V6.1026H60.4258V18.9826H62.0731Z" fill="white"/>
<rect x="0.827148" y="2.73816" width="17.5238" height="17.5238" rx="2.7381" fill="white"/>
<path d="M11.6042 14.479C14.0751 14.479 15.6872 12.7616 15.6872 10.3959C15.6872 7.96012 14.0926 6.33041 11.6042 6.33041H6.68001V19.0001H8.39734V14.479H11.6042ZM11.3063 7.8725C12.9185 7.8725 13.8823 8.78374 13.8823 10.3784C13.8823 11.938 12.936 12.9369 11.2362 12.9369H8.39734V7.8725H11.3063Z" fill="#7557D3"/>
<g filter="url(#filter0_d_153_722)">
<path d="M10.509 14.479C12.9798 14.479 14.592 12.7616 14.592 10.3959C14.592 7.96012 12.9974 6.33041 10.509 6.33041H5.58479V19.0001H7.30213V14.479H10.509ZM10.2111 7.8725C11.8233 7.8725 12.7871 8.78374 12.7871 10.3784C12.7871 11.938 11.8408 12.9369 10.141 12.9369H7.30213V7.8725H10.2111Z" fill="#7557D3"/>
</g>
<defs>
<filter id="filter0_d_153_722" x="5.0371" y="6.33044" width="10.1026" height="13.7649" filterUnits="userSpaceOnUse" color-interpolation-filters="sRGB">
<feFlood flood-opacity="0" result="BackgroundImageFix"/>
<feColorMatrix in="SourceAlpha" type="matrix" values="0 0 0 0 0 0 0 0 0 0 0 0 0 0 0 0 0 0 127 0" result="hardAlpha"/>
<feOffset dy="0.547619"/>
<feGaussianBlur stdDeviation="0.27381"/>
<feComposite in2="hardAlpha" operator="out"/>
<feColorMatrix type="matrix" values="0 0 0 0 0 0 0 0 0 0 0 0 0 0 0 0 0 0 0.25 0"/>
<feBlend mode="normal" in2="BackgroundImageFix" result="effect1_dropShadow_153_722"/>
<feBlend mode="normal" in="SourceGraphic" in2="effect1_dropShadow_153_722" result="shape"/>
</filter>
</defs>
</svg>
