<svg width="20" height="20" viewBox="0 0 20 20" fill="none" xmlns="http://www.w3.org/2000/svg">
<path d="M9.16675 14.1666H5.83342C4.72835 14.1666 3.66854 13.7276 2.88714 12.9462C2.10573 12.1648 1.66675 11.105 1.66675 9.99992C1.66675 8.89485 2.10573 7.83504 2.88714 7.05364C3.66854 6.27224 4.72835 5.83325 5.83342 5.83325H9.16675V7.49992H5.83342C5.17037 7.49992 4.53449 7.76331 4.06565 8.23215C3.59681 8.70099 3.33341 9.33688 3.33341 9.99992C3.33341 10.663 3.59681 11.2988 4.06565 11.7677C4.53449 12.2365 5.17037 12.4999 5.83342 12.4999H9.16675V14.1666ZM14.1667 5.83325H10.8334V7.49992H14.1667C14.8298 7.49992 15.4657 7.76331 15.9345 8.23215C16.4034 8.70099 16.6667 9.33688 16.6667 9.99992C16.6667 10.663 16.4034 11.2988 15.9345 11.7677C15.4657 12.2365 14.8298 12.4999 14.1667 12.4999H10.8334V14.1666H14.1667C15.2718 14.1666 16.3316 13.7276 17.113 12.9462C17.8944 12.1648 18.3334 11.105 18.3334 9.99992C18.3334 8.89485 17.8944 7.83504 17.113 7.05364C16.3316 6.27224 15.2718 5.83325 14.1667 5.83325ZM13.3334 9.16659H6.66675V10.8333H13.3334V9.16659Z" fill="white"/>
</svg>
