<svg width="6" height="12" viewBox="0 0 6 12" fill="none" xmlns="http://www.w3.org/2000/svg">
<path d="M2.79989 3.50008H4.46655L2.63322 11.8334H0.966553L2.79989 3.50008ZM4.19989 0.166748C4.03507 0.166748 3.87395 0.215622 3.73691 0.30719C3.59987 0.398758 3.49306 0.528907 3.42999 0.681179C3.36691 0.83345 3.35041 1.00101 3.38257 1.16266C3.41472 1.32431 3.49409 1.47279 3.61063 1.58934C3.72717 1.70588 3.87566 1.78525 4.03731 1.8174C4.19896 1.84956 4.36652 1.83305 4.51879 1.76998C4.67106 1.70691 4.80121 1.6001 4.89278 1.46306C4.98435 1.32602 5.03322 1.1649 5.03322 1.00008C5.03322 0.779068 4.94542 0.567106 4.78914 0.410826C4.63286 0.254546 4.4209 0.166748 4.19989 0.166748Z" fill="white"/>
</svg>
