<svg width="3" height="15" viewBox="0 0 3 15" fill="none" xmlns="http://www.w3.org/2000/svg">
<path d="M1.25 0C0.5625 0 0 0.5625 0 1.25C0 1.9375 0.5625 2.5 1.25 2.5C1.9375 2.5 2.5 1.9375 2.5 1.25C2.5 0.5625 1.9375 0 1.25 0ZM1.25 12.5C0.5625 12.5 0 13.0625 0 13.75C0 14.4375 0.5625 15 1.25 15C1.9375 15 2.5 14.4375 2.5 13.75C2.5 13.0625 1.9375 12.5 1.25 12.5ZM1.25 6.25C0.5625 6.25 0 6.8125 0 7.5C0 8.1875 0.5625 8.75 1.25 8.75C1.9375 8.75 2.5 8.1875 2.5 7.5C2.5 6.8125 1.9375 6.25 1.25 6.25Z" fill="#7557D3"/>
</svg>
