<svg width="20" height="20" viewBox="0 0 20 20" fill="none" xmlns="http://www.w3.org/2000/svg">
<path d="M6.4017 4.16659C5.61857 4.15392 4.85477 4.41004 4.23759 4.89226C3.62041 5.37447 3.18715 6.05365 3.01003 6.81659C2.83159 7.6824 3.00439 8.58364 3.49042 9.32206C3.97645 10.0605 4.73589 10.5756 5.6017 10.7541L5.6242 10.7583C5.84854 10.8082 6.07769 10.8334 6.30753 10.8333V15.8333H7.9742V5.83325H9.64086V15.8333H11.3075V5.83325H12.9742V4.16659H6.4017ZM4.61003 7.49992C4.61003 7.05789 4.78562 6.63397 5.09818 6.32141C5.41075 6.00885 5.83467 5.83325 6.2767 5.83325V9.16659C5.83467 9.16659 5.41075 8.99099 5.09818 8.67843C4.78562 8.36587 4.61003 7.94195 4.61003 7.49992ZM17.06 14.5758C17.06 14.823 16.9867 15.0647 16.8494 15.2702C16.712 15.4758 16.5168 15.636 16.2884 15.7306C16.06 15.8252 15.8086 15.85 15.5662 15.8017C15.3237 15.7535 15.101 15.6345 14.9261 15.4596C14.7513 15.2848 14.6323 15.0621 14.584 14.8196C14.5358 14.5771 14.5606 14.3258 14.6552 14.0974C14.7498 13.869 14.91 13.6738 15.1156 13.5364C15.3211 13.3991 15.5628 13.3258 15.81 13.3258C16.1415 13.3258 16.4595 13.4574 16.6939 13.6919C16.9283 13.9263 17.06 14.2442 17.06 14.5758ZM17.06 11.2424C17.06 11.4896 16.9867 11.7313 16.8494 11.9369C16.712 12.1424 16.5168 12.3027 16.2884 12.3973C16.06 12.4919 15.8086 12.5166 15.5662 12.4684C15.3237 12.4202 15.101 12.3011 14.9261 12.1263C14.7513 11.9515 14.6323 11.7288 14.584 11.4863C14.5358 11.2438 14.5606 10.9925 14.6552 10.7641C14.7498 10.5357 14.91 10.3404 15.1156 10.2031C15.3211 10.0657 15.5628 9.99242 15.81 9.99242C16.1415 9.99242 16.4595 10.1241 16.6939 10.3585C16.9283 10.593 17.06 10.9109 17.06 11.2424ZM17.06 7.90909C17.06 8.15631 16.9867 8.39799 16.8494 8.60355C16.712 8.80911 16.5168 8.96933 16.2884 9.06394C16.06 9.15855 15.8086 9.1833 15.5662 9.13507C15.3237 9.08684 15.101 8.96779 14.9261 8.79297C14.7513 8.61815 14.6323 8.39542 14.584 8.15295C14.5358 7.91047 14.5606 7.65914 14.6552 7.43073C14.7498 7.20232 14.91 7.0071 15.1156 6.86975C15.3211 6.7324 15.5628 6.65909 15.81 6.65909C16.1415 6.65909 16.4595 6.79078 16.6939 7.0252C16.9283 7.25962 17.06 7.57757 17.06 7.90909Z" fill="white"/>
</svg>
