<svg width="20" height="20" viewBox="0 0 20 20" fill="none" xmlns="http://www.w3.org/2000/svg">
<path d="M9.9925 2.49989C8.50946 2.50137 7.06015 2.9425 5.82777 3.76751C4.59539 4.59252 3.63526 5.76438 3.06876 7.13495C2.50225 8.50553 2.35479 10.0133 2.64503 11.4677C2.93526 12.922 3.65016 14.2577 4.69935 15.3058C5.74855 16.354 7.08493 17.0675 8.53958 17.3563C9.99423 17.6451 11.5018 17.4961 12.8719 16.9283C14.2419 16.3604 15.4128 15.3991 16.2365 14.1659C17.0603 12.9327 17.5 11.4829 17.5 9.99989C17.5005 9.0142 17.3066 8.0381 16.9294 7.12745C16.5522 6.2168 15.9991 5.38948 15.3017 4.69285C14.6044 3.99621 13.7765 3.44394 12.8655 3.06765C11.9545 2.69135 10.9782 2.49841 9.9925 2.49989ZM10 15.8332C8.84628 15.8332 7.71846 15.4911 6.75918 14.8501C5.79989 14.2092 5.05222 13.2981 4.61071 12.2322C4.16919 11.1663 4.05368 9.99342 4.27876 8.86186C4.50384 7.7303 5.05941 6.6909 5.87521 5.8751C6.69102 5.05929 7.73042 4.50372 8.86198 4.27864C9.99353 4.05356 11.1664 4.16908 12.2323 4.61059C13.2982 5.0521 14.2093 5.79977 14.8502 6.75906C15.4912 7.71835 15.8333 8.84616 15.8333 9.99989C15.8335 10.766 15.6828 11.5246 15.3897 12.2325C15.0967 12.9403 14.667 13.5834 14.1253 14.1251C13.5835 14.6669 12.9404 15.0965 12.2326 15.3896C11.5247 15.6827 10.7661 15.8334 10 15.8332ZM12.5875 11.4999H13.84C13.5387 12.2732 13.0109 12.9376 12.3257 13.4059C11.6406 13.8743 10.83 14.1249 10 14.1249C9.17005 14.1249 8.35943 13.8743 7.67426 13.4059C6.9891 12.9376 6.46132 12.2732 6.16 11.4999H7.4125C7.67349 11.9556 8.05022 12.3344 8.50458 12.5978C8.95895 12.8612 9.47482 12.9999 10 12.9999C10.5252 12.9999 11.0411 12.8612 11.4954 12.5978C11.9498 12.3344 12.3265 11.9556 12.5875 11.4999ZM6.25 8.12489C6.25 7.90238 6.31598 7.68487 6.4396 7.49987C6.56322 7.31486 6.73892 7.17067 6.94448 7.08552C7.15005 7.00037 7.37625 6.97809 7.59448 7.0215C7.81271 7.06491 8.01316 7.17206 8.1705 7.32939C8.32783 7.48672 8.43498 7.68718 8.47839 7.90541C8.52179 8.12364 8.49952 8.34984 8.41437 8.55541C8.32922 8.76097 8.18502 8.93667 8.00002 9.06029C7.81501 9.18391 7.59751 9.24989 7.375 9.24989C7.07663 9.24989 6.79049 9.13136 6.57951 8.92038C6.36853 8.7094 6.25 8.42325 6.25 8.12489ZM11.5 8.12489C11.5 7.90238 11.566 7.68487 11.6896 7.49987C11.8132 7.31486 11.9889 7.17067 12.1945 7.08552C12.4001 7.00037 12.6263 6.97809 12.8445 7.0215C13.0627 7.06491 13.2632 7.17206 13.4205 7.32939C13.5778 7.48672 13.685 7.68718 13.7284 7.90541C13.7718 8.12364 13.7495 8.34984 13.6644 8.55541C13.5792 8.76097 13.435 8.93667 13.25 9.06029C13.065 9.18391 12.8475 9.24989 12.625 9.24989C12.3266 9.24989 12.0405 9.13136 11.8295 8.92038C11.6185 8.7094 11.5 8.42325 11.5 8.12489Z" fill="white"/>
</svg>
