<svg width="94" height="94" viewBox="0 0 94 94" fill="none" xmlns="http://www.w3.org/2000/svg">
<circle cx="47" cy="47" r="47" fill="#1AA551"/>
<g filter="url(#filter0_d_9_10151)">
<circle cx="46.9996" cy="46.9996" r="40.4969" stroke="white" stroke-opacity="0.7" stroke-width="1.19668"/>
</g>
<path d="M66.1152 36.6889C66.1152 37.9608 65.6344 39.1889 64.76 40.0661L44.4322 60.5047C43.5141 61.3819 42.2901 61.9082 41.0223 61.9082C39.7546 61.9082 38.5305 61.3819 37.6562 60.5047L27.4704 50.2854C26.5961 49.4082 26.1152 48.1801 26.1152 46.9082C26.1152 45.6363 26.6398 44.4521 27.5141 43.531C28.4322 42.6538 29.6125 42.1714 30.8803 42.1275C32.148 42.1275 33.3283 42.61 34.2464 43.4872L41.0223 50.2854L57.9841 33.2679C58.9021 32.3907 60.0825 31.9082 61.3502 31.9082C62.618 31.9521 63.7983 32.4345 64.7163 33.3556C65.5906 34.2328 66.1152 35.417 66.1152 36.6889Z" fill="white"/>
<defs>
<filter id="filter0_d_9_10151" x="3.51094" y="5.30596" width="86.9771" height="86.9773" filterUnits="userSpaceOnUse" color-interpolation-filters="sRGB">
<feFlood flood-opacity="0" result="BackgroundImageFix"/>
<feColorMatrix in="SourceAlpha" type="matrix" values="0 0 0 0 0 0 0 0 0 0 0 0 0 0 0 0 0 0 127 0" result="hardAlpha"/>
<feOffset dy="1.79502"/>
<feGaussianBlur stdDeviation="1.19668"/>
<feColorMatrix type="matrix" values="0 0 0 0 0 0 0 0 0 0 0 0 0 0 0 0 0 0 0.12 0"/>
<feBlend mode="normal" in2="BackgroundImageFix" result="effect1_dropShadow_9_10151"/>
<feBlend mode="normal" in="SourceGraphic" in2="effect1_dropShadow_9_10151" result="shape"/>
</filter>
</defs>
</svg>
