<svg width="20" height="20" viewBox="0 0 20 20" fill="none" xmlns="http://www.w3.org/2000/svg">
<path d="M11.2916 15.8334H12.9583L8.79159 4.16675H7.12492L2.95825 15.8334H4.62492L5.79159 12.5001H10.0416L11.2916 15.8334ZM6.37492 10.8334L7.95825 6.50008L9.54159 10.8334H6.37492ZM17.0416 14.5834C17.0416 14.8306 16.9683 15.0723 16.8309 15.2779C16.6936 15.4834 16.4983 15.6437 16.2699 15.7383C16.0415 15.8329 15.7902 15.8576 15.5477 15.8094C15.3052 15.7612 15.0825 15.6421 14.9077 15.4673C14.7329 15.2925 14.6138 15.0698 14.5656 14.8273C14.5174 14.5848 14.5421 14.3335 14.6367 14.1051C14.7313 13.8767 14.8916 13.6814 15.0971 13.5441C15.3027 13.4067 15.5444 13.3334 15.7916 13.3334C16.1231 13.3334 16.441 13.4651 16.6755 13.6995C16.9099 13.934 17.0416 14.2519 17.0416 14.5834ZM17.0416 11.2501C17.0416 11.4973 16.9683 11.739 16.8309 11.9445C16.6936 12.1501 16.4983 12.3103 16.2699 12.4049C16.0415 12.4995 15.7902 12.5243 15.5477 12.4761C15.3052 12.4278 15.0825 12.3088 14.9077 12.134C14.7329 11.9591 14.6138 11.7364 14.5656 11.4939C14.5174 11.2515 14.5421 11.0001 14.6367 10.7717C14.7313 10.5433 14.8916 10.3481 15.0971 10.2107C15.3027 10.0734 15.5444 10.0001 15.7916 10.0001C16.1231 10.0001 16.441 10.1318 16.6755 10.3662C16.9099 10.6006 17.0416 10.9186 17.0416 11.2501ZM17.0416 7.91675C17.0416 8.16398 16.9683 8.40565 16.8309 8.61121C16.6936 8.81677 16.4983 8.97699 16.2699 9.0716C16.0415 9.16621 15.7902 9.19096 15.5477 9.14273C15.3052 9.0945 15.0825 8.97545 14.9077 8.80063C14.7329 8.62582 14.6138 8.40309 14.5656 8.16061C14.5174 7.91814 14.5421 7.6668 14.6367 7.43839C14.7313 7.20999 14.8916 7.01476 15.0971 6.87741C15.3027 6.74006 15.5444 6.66675 15.7916 6.66675C16.1231 6.66675 16.441 6.79844 16.6755 7.03286C16.9099 7.26729 17.0416 7.58523 17.0416 7.91675Z" fill="white"/>
</svg>
