<svg width="20" height="20" viewBox="0 0 20 20" fill="none" xmlns="http://www.w3.org/2000/svg">
<path d="M15.8334 16.6667V18.3334H4.16675V16.6667H15.8334ZM13.3334 11.0126C13.306 11.5626 13.1427 12.0972 12.8582 12.5687C12.5737 13.0402 12.1768 13.4338 11.703 13.7144C11.2292 13.9951 10.6933 14.154 10.1431 14.1769C9.5929 14.1999 9.04559 14.0861 8.55008 13.8459C7.97895 13.5988 7.49459 13.1869 7.15905 12.6628C6.82352 12.1387 6.6521 11.5264 6.66675 10.9042V4.17091H5.00008V11.0126C5.02827 11.7971 5.24079 12.5639 5.62043 13.251C6.00007 13.9382 6.53616 14.5262 7.18531 14.9676C7.83445 15.4091 8.57842 15.6914 9.35698 15.7919C10.1355 15.8924 10.9268 15.8081 11.6667 15.5459C12.651 15.2178 13.505 14.5844 14.1044 13.7376C14.7039 12.8908 15.0177 11.8749 15.0001 10.8376V4.17091H13.3334V11.0126ZM13.3334 4.16675H15.0001H13.3334ZM6.66675 4.16675H5.00008H6.66675Z" fill="white"/>
</svg>
