<svg width="32" height="32" viewBox="0 0 32 32" fill="none" xmlns="http://www.w3.org/2000/svg">
<circle cx="16" cy="16" r="15.5" fill="white" stroke="#CBC4DE"/>
<g clip-path="url(#clip0_324_564)">
<path d="M6.83337 18.0835C6.83286 17.1631 7.06706 16.2577 7.51383 15.453C7.96061 14.6482 8.60521 13.9707 9.38671 13.4844C9.59297 11.8761 10.3782 10.3981 11.5955 9.32701C12.8127 8.25589 14.3786 7.66504 16 7.66504C17.6215 7.66504 19.1873 8.25589 20.4046 9.32701C21.6219 10.3981 22.4071 11.8761 22.6134 13.4844C23.5827 14.0875 24.3368 14.9814 24.7678 16.0385C25.1988 17.0957 25.2848 18.262 25.0135 19.3709C24.7422 20.4798 24.1274 21.4747 23.257 22.2134C22.3866 22.9522 21.305 23.397 20.1667 23.4844L11.8334 23.5002C9.03671 23.2719 6.83337 20.9352 6.83337 18.0835ZM20.04 21.8227C20.8282 21.7621 21.5771 21.454 22.1797 20.9423C22.7823 20.4307 23.2078 19.7417 23.3954 18.9737C23.583 18.2058 23.5232 17.3982 23.2244 16.6664C22.9256 15.9345 22.4032 15.3158 21.7317 14.8985L21.0592 14.4794L20.9592 13.6944C20.8034 12.4891 20.2141 11.3818 19.3014 10.5795C18.3886 9.77708 17.2149 9.33453 15.9996 9.33453C14.7843 9.33453 13.6106 9.77708 12.6979 10.5795C11.7851 11.3818 11.1958 12.4891 11.04 13.6944L10.94 14.4794L10.2692 14.8985C9.59779 15.3157 9.07536 15.9344 8.77654 16.6662C8.47772 17.398 8.41778 18.2055 8.6053 18.9734C8.79281 19.7413 9.21819 20.4303 9.82067 20.942C10.4231 21.4537 11.1719 21.762 11.96 21.8227L12.1042 21.8335H19.8959L20.04 21.8227ZM16.8334 16.8335V20.1669H15.1667V16.8335H12.6667L16 12.6669L19.3334 16.8335H16.8334Z" fill="#7557D3"/>
</g>
<defs>
<clipPath id="clip0_324_564">
<rect width="20" height="20" fill="white" transform="translate(6 6)"/>
</clipPath>
</defs>
</svg>
