<svg width="20" height="20" viewBox="0 0 20 20" fill="none" xmlns="http://www.w3.org/2000/svg">
<g clip-path="url(#clip0_324_559)">
<path d="M0.833375 12.0835C0.832862 11.1631 1.06706 10.2577 1.51383 9.45296C1.96061 8.64821 2.60521 7.97067 3.38671 7.48438C3.59297 5.87612 4.37821 4.39813 5.59547 3.32701C6.81274 2.25589 8.37861 1.66504 10 1.66504C11.6215 1.66504 13.1873 2.25589 14.4046 3.32701C15.6219 4.39813 16.4071 5.87612 16.6134 7.48438C17.5827 8.08745 18.3368 8.98138 18.7678 10.0385C19.1988 11.0957 19.2848 12.262 19.0135 13.3709C18.7422 14.4798 18.1274 15.4747 17.257 16.2134C16.3866 16.9522 15.305 17.397 14.1667 17.4844L5.83337 17.5002C3.03671 17.2719 0.833375 14.9352 0.833375 12.0835ZM14.04 15.8227C14.8282 15.7621 15.5771 15.454 16.1797 14.9423C16.7823 14.4307 17.2078 13.7417 17.3954 12.9737C17.583 12.2058 17.5232 11.3982 17.2244 10.6664C16.9256 9.93449 16.4032 9.31576 15.7317 8.89854L15.0592 8.47938L14.9592 7.69438C14.8034 6.48912 14.2141 5.38182 13.3014 4.57945C12.3886 3.77708 11.2149 3.33453 9.99962 3.33453C8.78434 3.33453 7.61064 3.77708 6.69789 4.57945C5.78515 5.38182 5.19581 6.48912 5.04004 7.69438L4.94004 8.47938L4.26921 8.89854C3.59779 9.31571 3.07536 9.93437 2.77654 10.6662C2.47772 11.398 2.41778 12.2055 2.6053 12.9734C2.79281 13.7413 3.21819 14.4303 3.82067 14.942C4.42315 15.4537 5.17192 15.762 5.96004 15.8227L6.10421 15.8335H13.8959L14.04 15.8227ZM10.8334 10.8335V14.1669H9.16671V10.8335H6.66671L10 6.66688L13.3334 10.8335H10.8334Z" fill="#7557D3"/>
</g>
<defs>
<clipPath id="clip0_324_559">
<rect width="20" height="20" fill="white"/>
</clipPath>
</defs>
</svg>
